<svg xmlns="http://www.w3.org/2000/svg" viewBox="0 0 1920 1080" preserveAspectRatio="xMidYMid slice" role="img" aria-label="Crimson moon over a castle and pine forest">
  <defs>
    <linearGradient id="sky" x1="0" y1="0" x2="0" y2="1">
      <stop offset="0" stop-color="#3a0e1f"/>
      <stop offset="0.22" stop-color="#4e1526"/>
      <stop offset="0.42" stop-color="#6c1d30"/>
      <stop offset="0.6" stop-color="#7a2236"/>
      <stop offset="0.78" stop-color="#7d2238"/>
      <stop offset="1" stop-color="#551b2e"/>
    </linearGradient>
    <radialGradient id="glow" cx="0.5" cy="0.5" r="0.5">
      <stop offset="0" stop-color="#a83048" stop-opacity="0.9"/>
      <stop offset="0.5" stop-color="#8a2740" stop-opacity="0.4"/>
      <stop offset="1" stop-color="#8a2740" stop-opacity="0"/>
    </radialGradient>
    <radialGradient id="moon" cx="0.42" cy="0.38" r="0.62">
      <stop offset="0" stop-color="#ec6470"/>
      <stop offset="0.55" stop-color="#cf3a48"/>
      <stop offset="1" stop-color="#a8243a"/>
    </radialGradient>
    <filter id="soft" x="-30%" y="-30%" width="160%" height="160%">
      <feGaussianBlur stdDeviation="22"/>
    </filter>
  </defs>

  <rect width="1920" height="1080" fill="url(#sky)"/>
  <ellipse cx="915" cy="240" rx="760" ry="430" fill="url(#glow)"/>
  <g filter="url(#soft)"><ellipse cx="260" cy="150" rx="260" ry="46" fill="#7d2840" opacity="0.55"/><ellipse cx="520" cy="120" rx="300" ry="42" fill="#8a2c44" opacity="0.45"/><ellipse cx="1450" cy="170" rx="340" ry="52" fill="#7d2840" opacity="0.55"/><ellipse cx="1700" cy="140" rx="260" ry="44" fill="#6f2438" opacity="0.5"/><ellipse cx="300" cy="470" rx="420" ry="60" fill="#902f48" opacity="0.5"/><ellipse cx="1500" cy="460" rx="460" ry="64" fill="#902f48" opacity="0.5"/><ellipse cx="760" cy="430" rx="520" ry="70" fill="#9c3450" opacity="0.45"/><ellipse cx="1150" cy="430" rx="520" ry="70" fill="#9c3450" opacity="0.45"/><ellipse cx="1000" cy="250" rx="300" ry="40" fill="#88293f" opacity="0.4"/><ellipse cx="120" cy="300" rx="240" ry="46" fill="#7a2a40" opacity="0.4"/></g>
  <circle cx="915" cy="210" r="118" fill="url(#moon)"/>
  <circle cx="915" cy="210" r="118" fill="#7a1f30" opacity="0.12"/>
  <path d="M560.0,250.0 C546.4,233.0 529.4,243.2 512.4,231.3 C524.3,244.9 531.1,253.4 544.7,254.1 C553.2,254.1 556.6,251.7 560.0,260.2 C563.4,251.7 566.8,254.1 575.3,254.1 C588.9,253.4 595.7,244.9 607.6,231.3 C590.6,243.2 573.6,233.0 560.0,250.0 Z" fill="#070509" opacity="0.85"/><path d="M660.0,210.0 C651.2,199.0 640.2,205.6 629.2,197.9 C636.9,206.7 641.3,212.2 650.1,212.6 C655.6,212.6 657.8,211.1 660.0,216.6 C662.2,211.1 664.4,212.6 669.9,212.6 C678.7,212.2 683.1,206.7 690.8,197.9 C679.8,205.6 668.8,199.0 660.0,210.0 Z" fill="#070509" opacity="0.85"/><path d="M430.0,330.0 C422.0,320.0 412.0,326.0 402.0,319.0 C409.0,327.0 413.0,332.0 421.0,332.4 C426.0,332.4 428.0,331.0 430.0,336.0 C432.0,331.0 434.0,332.4 439.0,332.4 C447.0,332.0 451.0,327.0 458.0,319.0 C448.0,326.0 438.0,320.0 430.0,330.0 Z" fill="#070509" opacity="0.85"/><path d="M720.0,360.0 C713.6,352.0 705.6,356.8 697.6,351.2 C703.2,357.6 706.4,361.6 712.8,361.9 C716.8,361.9 718.4,360.8 720.0,364.8 C721.6,360.8 723.2,361.9 727.2,361.9 C733.6,361.6 736.8,357.6 742.4,351.2 C734.4,356.8 726.4,352.0 720.0,360.0 Z" fill="#070509" opacity="0.85"/><path d="M1180.0,150.0 C1168.0,135.0 1153.0,144.0 1138.0,133.5 C1148.5,145.5 1154.5,153.0 1166.5,153.6 C1174.0,153.6 1177.0,151.5 1180.0,159.0 C1183.0,151.5 1186.0,153.6 1193.5,153.6 C1205.5,153.0 1211.5,145.5 1222.0,133.5 C1207.0,144.0 1192.0,135.0 1180.0,150.0 Z" fill="#070509" opacity="0.85"/><path d="M1320.0,250.0 C1310.4,238.0 1298.4,245.2 1286.4,236.8 C1294.8,246.4 1299.6,252.4 1309.2,252.9 C1315.2,252.9 1317.6,251.2 1320.0,257.2 C1322.4,251.2 1324.8,252.9 1330.8,252.9 C1340.4,252.4 1345.2,246.4 1353.6,236.8 C1341.6,245.2 1329.6,238.0 1320.0,250.0 Z" fill="#070509" opacity="0.85"/><path d="M1260.0,330.0 C1252.8,321.0 1243.8,326.4 1234.8,320.1 C1241.1,327.3 1244.7,331.8 1251.9,332.2 C1256.4,332.2 1258.2,330.9 1260.0,335.4 C1261.8,330.9 1263.6,332.2 1268.1,332.2 C1275.3,331.8 1278.9,327.3 1285.2,320.1 C1276.2,326.4 1267.2,321.0 1260.0,330.0 Z" fill="#070509" opacity="0.85"/><path d="M1430.0,200.0 C1419.6,187.0 1406.6,194.8 1393.6,185.7 C1402.7,196.1 1407.9,202.6 1418.3,203.1 C1424.8,203.1 1427.4,201.3 1430.0,207.8 C1432.6,201.3 1435.2,203.1 1441.7,203.1 C1452.1,202.6 1457.3,196.1 1466.4,185.7 C1453.4,194.8 1440.4,187.0 1430.0,200.0 Z" fill="#070509" opacity="0.85"/><path d="M980.0,120.0 C972.8,111.0 963.8,116.4 954.8,110.1 C961.1,117.3 964.7,121.8 971.9,122.2 C976.4,122.2 978.2,120.9 980.0,125.4 C981.8,120.9 983.6,122.2 988.1,122.2 C995.3,121.8 998.9,117.3 1005.2,110.1 C996.2,116.4 987.2,111.0 980.0,120.0 Z" fill="#070509" opacity="0.85"/><path d="M840.0,300.0 C834.0,292.5 826.5,297.0 819.0,291.8 C824.2,297.8 827.2,301.5 833.2,301.8 C837.0,301.8 838.5,300.8 840.0,304.5 C841.5,300.8 843.0,301.8 846.8,301.8 C852.8,301.5 855.8,297.8 861.0,291.8 C853.5,297.0 846.0,292.5 840.0,300.0 Z" fill="#070509" opacity="0.85"/>
  <path d="M540,640 C700,560 820,548 960,548 C1120,548 1260,572 1420,650 C1520,700 1600,760 1700,820 L1700,1080 L360,1080 C400,940 460,720 540,640 Z" fill="#171020"/>
  <g fill="#1a1222" opacity="0.9"><polygon points="-84.5,760.0 4.5,760.0 -40.0,685.8"/><polygon points="-75.3,711.7 -4.7,711.7 -40.0,640.3"/><polygon points="-66.1,663.5 -13.9,663.5 -40.0,594.8"/><polygon points="-56.9,615.2 -23.1,615.2 -40.0,549.3"/><polygon points="-48.9,657.9 -31.1,657.9 -40.0,574.4"/></g><g fill="#1a1222" opacity="0.9"><polygon points="6.5,760.0 118.6,760.0 62.5,696.8"/><polygon points="18.1,718.9 107.0,718.9 62.5,658.1"/><polygon points="29.6,677.9 95.4,677.9 62.5,619.4"/><polygon points="41.2,636.8 83.9,636.8 62.5,580.7"/><polygon points="51.3,673.1 73.8,673.1 62.5,602.0"/></g><g fill="#1a1222" opacity="0.9"><polygon points="95.6,760.0 206.1,760.0 150.8,697.4"/><polygon points="107.0,719.3 194.6,719.3 150.8,659.1"/><polygon points="118.4,678.7 183.2,678.7 150.8,620.8"/><polygon points="129.8,638.0 171.8,638.0 150.8,582.5"/><polygon points="139.8,674.0 161.9,674.0 150.8,603.6"/></g><g fill="#1a1222" opacity="0.9"><polygon points="180.6,760.0 264.8,760.0 222.7,680.9"/><polygon points="189.3,708.6 256.1,708.6 222.7,632.5"/><polygon points="198.0,657.2 247.4,657.2 222.7,584.0"/><polygon points="206.7,605.8 238.7,605.8 222.7,535.6"/><polygon points="214.3,651.3 231.1,651.3 222.7,562.3"/></g><g fill="#1a1222" opacity="0.9"><polygon points="232.4,760.0 362.0,760.0 297.2,681.3"/><polygon points="245.8,708.9 348.7,708.9 297.2,633.1"/><polygon points="259.2,657.7 335.3,657.7 297.2,584.9"/><polygon points="272.6,606.6 321.9,606.6 297.2,536.7"/><polygon points="284.3,651.8 310.2,651.8 297.2,563.3"/></g><g fill="#1a1222" opacity="0.9"><polygon points="314.6,760.0 432.3,760.0 373.4,690.2"/><polygon points="326.8,714.6 420.1,714.6 373.4,647.4"/><polygon points="338.9,669.2 407.9,669.2 373.4,604.6"/><polygon points="351.1,623.8 395.8,623.8 373.4,561.9"/><polygon points="361.7,664.0 385.2,664.0 373.4,585.4"/></g><g fill="#1a1222" opacity="0.9"><polygon points="438.9,760.0 542.7,760.0 490.8,674.6"/><polygon points="449.6,704.5 532.0,704.5 490.8,622.3"/><polygon points="460.4,649.0 521.3,649.0 490.8,570.0"/><polygon points="471.1,593.5 510.5,593.5 490.8,517.7"/><polygon points="480.4,642.6 501.2,642.6 490.8,546.5"/></g><g fill="#1a1222" opacity="0.9"><polygon points="543.9,760.0 675.4,760.0 609.6,698.0"/><polygon points="557.5,719.7 661.8,719.7 609.6,659.9"/><polygon points="571.1,679.3 648.2,679.3 609.6,621.9"/><polygon points="584.6,639.0 634.6,639.0 609.6,583.9"/><polygon points="596.5,674.7 622.8,674.7 609.6,604.9"/></g><g fill="#1a1222" opacity="0.9"><polygon points="650.6,760.0 737.6,760.0 694.1,693.7"/><polygon points="659.6,716.9 728.6,716.9 694.1,653.0"/><polygon points="668.6,673.7 719.7,673.7 694.1,612.4"/><polygon points="677.6,630.6 710.7,630.6 694.1,571.7"/><polygon points="685.4,668.8 702.8,668.8 694.1,594.1"/></g><g fill="#1a1222" opacity="0.9"><polygon points="734.1,760.0 825.0,760.0 779.5,664.1"/><polygon points="743.5,697.7 815.6,697.7 779.5,605.3"/><polygon points="752.9,635.3 806.2,635.3 779.5,546.6"/><polygon points="762.3,573.0 796.8,573.0 779.5,487.9"/><polygon points="770.5,628.1 788.6,628.1 779.5,520.2"/></g><g fill="#1a1222" opacity="0.9"><polygon points="827.4,760.0 929.8,760.0 878.6,671.9"/><polygon points="838.0,702.7 919.2,702.7 878.6,617.9"/><polygon points="848.6,645.5 908.6,645.5 878.6,564.0"/><polygon points="859.2,588.2 898.1,588.2 878.6,510.0"/><polygon points="868.4,638.8 888.8,638.8 878.6,539.7"/></g><g fill="#1a1222" opacity="0.9"><polygon points="934.2,760.0 1017.8,760.0 976.0,697.2"/><polygon points="942.8,719.2 1009.2,719.2 976.0,658.8"/><polygon points="951.5,678.4 1000.5,678.4 976.0,620.4"/><polygon points="960.1,637.6 991.9,637.6 976.0,581.9"/><polygon points="967.6,673.7 984.4,673.7 976.0,603.1"/></g><g fill="#1a1222" opacity="0.9"><polygon points="1003.5,760.0 1109.1,760.0 1056.3,670.1"/><polygon points="1014.4,701.5 1098.2,701.5 1056.3,615.0"/><polygon points="1025.3,643.1 1087.3,643.1 1056.3,559.9"/><polygon points="1036.2,584.6 1076.4,584.6 1056.3,504.8"/><polygon points="1045.7,636.3 1066.9,636.3 1056.3,535.2"/></g><g fill="#1a1222" opacity="0.9"><polygon points="1088.4,760.0 1195.6,760.0 1142.0,674.2"/><polygon points="1099.5,704.3 1184.5,704.3 1142.0,621.7"/><polygon points="1110.6,648.5 1173.4,648.5 1142.0,569.2"/><polygon points="1121.6,592.8 1162.4,592.8 1142.0,516.6"/><polygon points="1131.3,642.1 1152.7,642.1 1142.0,545.6"/></g><g fill="#1a1222" opacity="0.9"><polygon points="1166.0,760.0 1288.0,760.0 1227.0,665.0"/><polygon points="1178.6,698.3 1275.4,698.3 1227.0,606.9"/><polygon points="1191.2,636.6 1262.8,636.6 1227.0,548.7"/><polygon points="1203.8,574.8 1250.2,574.8 1227.0,490.6"/><polygon points="1214.8,629.4 1239.2,629.4 1227.0,522.6"/></g><g fill="#1a1222" opacity="0.9"><polygon points="1253.4,760.0 1365.0,760.0 1309.2,674.7"/><polygon points="1265.0,704.6 1353.4,704.6 1309.2,622.5"/><polygon points="1276.5,649.1 1341.9,649.1 1309.2,570.3"/><polygon points="1288.0,593.7 1330.4,593.7 1309.2,518.0"/><polygon points="1298.0,642.7 1320.4,642.7 1309.2,546.8"/></g><g fill="#1a1222" opacity="0.9"><polygon points="1374.3,760.0 1471.6,760.0 1423.0,667.9"/><polygon points="1384.4,700.1 1461.5,700.1 1423.0,611.5"/><polygon points="1394.4,640.3 1451.5,640.3 1423.0,555.1"/><polygon points="1404.5,580.4 1441.4,580.4 1423.0,498.7"/><polygon points="1413.2,633.4 1432.7,633.4 1423.0,529.8"/></g><g fill="#1a1222" opacity="0.9"><polygon points="1489.4,760.0 1594.5,760.0 1542.0,694.8"/><polygon points="1500.3,717.6 1583.7,717.6 1542.0,654.9"/><polygon points="1511.1,675.2 1572.8,675.2 1542.0,614.9"/><polygon points="1522.0,632.9 1561.9,632.9 1542.0,575.0"/><polygon points="1531.5,670.4 1552.5,670.4 1542.0,597.0"/></g><g fill="#1a1222" opacity="0.9"><polygon points="1595.2,760.0 1704.5,760.0 1649.8,693.3"/><polygon points="1606.5,716.7 1693.2,716.7 1649.8,652.5"/><polygon points="1617.8,673.3 1681.9,673.3 1649.8,611.6"/><polygon points="1629.0,630.0 1670.6,630.0 1649.8,570.8"/><polygon points="1638.9,668.3 1660.8,668.3 1649.8,593.3"/></g><g fill="#1a1222" opacity="0.9"><polygon points="1658.8,760.0 1784.7,760.0 1721.8,670.6"/><polygon points="1671.9,701.9 1771.7,701.9 1721.8,615.8"/><polygon points="1684.9,643.8 1758.7,643.8 1721.8,561.1"/><polygon points="1697.9,585.7 1745.7,585.7 1721.8,506.3"/><polygon points="1709.2,637.1 1734.4,637.1 1721.8,536.5"/></g><g fill="#1a1222" opacity="0.9"><polygon points="1771.0,760.0 1869.8,760.0 1820.4,661.5"/><polygon points="1781.2,696.0 1859.6,696.0 1820.4,601.1"/><polygon points="1791.4,631.9 1849.4,631.9 1820.4,540.8"/><polygon points="1801.7,567.9 1839.2,567.9 1820.4,480.4"/><polygon points="1810.6,624.5 1830.3,624.5 1820.4,513.7"/></g><g fill="#1a1222" opacity="0.9"><polygon points="1867.8,760.0 1982.6,760.0 1925.2,673.8"/><polygon points="1879.7,704.0 1970.7,704.0 1925.2,621.1"/><polygon points="1891.5,648.0 1958.9,648.0 1925.2,568.3"/><polygon points="1903.4,592.0 1947.0,592.0 1925.2,515.5"/><polygon points="1913.7,641.5 1936.7,641.5 1925.2,544.6"/></g>
  <g fill="#1d1320">
  <rect x="882" y="500" width="150" height="105"/>
  <polygon points="882,500 1032,500 1032,492 1020,492 1020,500 1006,500 1006,490 994,490 994,500 980,500 980,492 968,492 968,500 952,500 952,490 940,490 940,500 926,500 926,492 914,492 914,500 900,500 900,490 888,490 888,500 882,500"/>
  <rect x="836" y="470" width="44" height="135"/>
  <polygon points="830,470 886,470 858,420"/>
  <rect x="1016" y="448" width="44" height="157"/>
  <polygon points="1010,448 1066,448 1038,392"/>
  <rect x="938" y="455" width="40" height="60"/>
  <polygon points="930,458 986,458 958,402"/>
  <rect x="800" y="520" width="36" height="85"/>
  <polygon points="795,520 841,520 818,484"/>
  <rect x="1060" y="512" width="34" height="93"/>
  <polygon points="1055,512 1099,512 1077,478"/>
</g>
<g fill="#e0a35c" opacity="0.55">
  <rect x="850" y="500" width="6" height="10"/>
  <rect x="862" y="520" width="6" height="10"/>
  <rect x="1030" y="486" width="6" height="11"/>
  <rect x="1042" y="510" width="6" height="11"/>
  <rect x="952" y="476" width="6" height="9"/>
  <rect x="910" y="530" width="6" height="10"/>
  <rect x="978" y="532" width="6" height="10"/>
  <rect x="812" y="552" width="5" height="9"/>
  <rect x="1072" y="546" width="5" height="9"/>
</g>
  <g fill="#100a16" opacity="0.96"><polygon points="-118.2,840.0 38.2,840.0 -40.0,716.3"/><polygon points="-106.1,779.7 26.1,779.7 -40.0,659.5"/><polygon points="-94.0,719.4 14.0,719.4 -40.0,602.7"/><polygon points="-81.8,659.1 1.8,659.1 -40.0,545.9"/><polygon points="-69.7,598.8 -10.3,598.8 -40.0,489.1"/><polygon points="-55.6,669.9 -24.4,669.9 -40.0,530.8"/></g><g fill="#100a16" opacity="0.96"><polygon points="31.6,840.0 130.5,840.0 81.1,725.5"/><polygon points="39.3,784.2 122.9,784.2 81.1,672.8"/><polygon points="46.9,728.3 115.2,728.3 81.1,620.2"/><polygon points="54.6,672.5 107.5,672.5 81.1,567.6"/><polygon points="62.3,616.7 99.9,616.7 81.1,515.0"/><polygon points="71.2,682.5 91.0,682.5 81.1,553.7"/></g><g fill="#100a16" opacity="0.96"><polygon points="134.9,840.0 294.4,840.0 214.7,726.3"/><polygon points="147.2,784.6 282.1,784.6 214.7,674.1"/><polygon points="159.6,729.2 269.7,729.2 214.7,621.9"/><polygon points="172.0,673.8 257.3,673.8 214.7,569.7"/><polygon points="184.3,618.4 245.0,618.4 214.7,517.5"/><polygon points="198.7,683.7 230.6,683.7 214.7,555.9"/></g><g fill="#100a16" opacity="0.96"><polygon points="294.8,840.0 414.9,840.0 354.9,745.2"/><polygon points="304.1,793.8 405.6,793.8 354.9,701.7"/><polygon points="313.4,747.6 396.3,747.6 354.9,658.1"/><polygon points="322.7,701.4 387.0,701.4 354.9,614.6"/><polygon points="332.0,655.1 377.7,655.1 354.9,571.0"/><polygon points="342.9,709.7 366.9,709.7 354.9,603.0"/></g><g fill="#100a16" opacity="0.96"><polygon points="424.1,840.0 549.1,840.0 486.6,758.8"/><polygon points="433.8,800.4 539.5,800.4 486.6,721.5"/><polygon points="443.5,760.9 529.8,760.9 486.6,684.2"/><polygon points="453.2,721.3 520.1,721.3 486.6,647.0"/><polygon points="462.9,681.7 510.4,681.7 486.6,609.7"/><polygon points="474.1,728.4 499.1,728.4 486.6,637.1"/></g><g fill="#100a16" opacity="0.96"><polygon points="541.5,840.0 640.3,840.0 590.9,753.9"/><polygon points="549.1,798.0 632.6,798.0 590.9,714.4"/><polygon points="556.8,756.1 625.0,756.1 590.9,674.8"/><polygon points="564.4,714.1 617.3,714.1 590.9,635.3"/><polygon points="572.1,672.1 609.7,672.1 590.9,595.7"/><polygon points="581.0,721.6 600.8,721.6 590.9,624.8"/></g><g fill="#100a16" opacity="0.96"><polygon points="672.6,840.0 783.7,840.0 728.1,753.3"/><polygon points="681.2,797.7 775.1,797.7 728.1,713.4"/><polygon points="689.8,755.4 766.5,755.4 728.1,673.6"/><polygon points="698.4,713.2 757.9,713.2 728.1,633.8"/><polygon points="707.0,670.9 749.2,670.9 728.1,593.9"/><polygon points="717.0,720.8 739.2,720.8 728.1,623.2"/></g><g fill="#100a16" opacity="0.96"><polygon points="794.5,840.0 894.8,840.0 844.6,714.7"/><polygon points="802.3,778.9 887.0,778.9 844.6,657.1"/><polygon points="810.1,717.8 879.2,717.8 844.6,599.6"/><polygon points="817.8,656.7 871.5,656.7 844.6,542.0"/><polygon points="825.6,595.6 863.7,595.6 844.6,484.4"/><polygon points="834.6,667.7 854.7,667.7 844.6,526.7"/></g><g fill="#100a16" opacity="0.96"><polygon points="888.1,840.0 1040.6,840.0 964.3,731.4"/><polygon points="899.9,787.1 1028.7,787.1 964.3,681.6"/><polygon points="911.8,734.1 1016.9,734.1 964.3,631.7"/><polygon points="923.6,681.2 1005.1,681.2 964.3,581.8"/><polygon points="935.4,628.3 993.3,628.3 964.3,531.9"/><polygon points="949.1,690.7 979.6,690.7 964.3,568.6"/></g><g fill="#100a16" opacity="0.96"><polygon points="1047.9,840.0 1161.0,840.0 1104.4,715.1"/><polygon points="1056.6,779.1 1152.2,779.1 1104.4,657.7"/><polygon points="1065.4,718.2 1143.4,718.2 1104.4,600.3"/><polygon points="1074.1,657.3 1134.7,657.3 1104.4,542.9"/><polygon points="1082.9,596.4 1125.9,596.4 1104.4,485.5"/><polygon points="1093.1,668.2 1115.7,668.2 1104.4,527.7"/></g><g fill="#100a16" opacity="0.96"><polygon points="1146.0,840.0 1298.5,840.0 1222.2,741.3"/><polygon points="1157.8,791.9 1286.7,791.9 1222.2,696.0"/><polygon points="1169.6,743.8 1274.8,743.8 1222.2,650.7"/><polygon points="1181.5,695.7 1263.0,695.7 1222.2,605.4"/><polygon points="1193.3,647.6 1251.2,647.6 1222.2,560.1"/><polygon points="1207.0,704.3 1237.5,704.3 1222.2,593.4"/></g><g fill="#100a16" opacity="0.96"><polygon points="1316.7,840.0 1423.1,840.0 1369.9,752.2"/><polygon points="1324.9,797.2 1414.9,797.2 1369.9,711.8"/><polygon points="1333.2,754.3 1406.6,754.3 1369.9,671.4"/><polygon points="1341.4,711.5 1398.4,711.5 1369.9,631.1"/><polygon points="1349.7,668.7 1390.1,668.7 1369.9,590.7"/><polygon points="1359.3,719.2 1380.6,719.2 1369.9,620.4"/></g><g fill="#100a16" opacity="0.96"><polygon points="1414.4,840.0 1540.9,840.0 1477.7,747.9"/><polygon points="1424.2,795.1 1531.1,795.1 1477.7,705.5"/><polygon points="1434.0,750.2 1521.3,750.2 1477.7,663.2"/><polygon points="1443.8,705.3 1511.5,705.3 1477.7,620.9"/><polygon points="1453.6,660.3 1501.7,660.3 1477.7,578.6"/><polygon points="1465.0,713.3 1490.3,713.3 1477.7,609.7"/></g><g fill="#100a16" opacity="0.96"><polygon points="1557.4,840.0 1652.7,840.0 1605.1,746.3"/><polygon points="1564.8,794.3 1645.3,794.3 1605.1,703.3"/><polygon points="1572.2,748.7 1637.9,748.7 1605.1,660.3"/><polygon points="1579.6,703.0 1630.6,703.0 1605.1,617.3"/><polygon points="1587.0,657.4 1623.2,657.4 1605.1,574.2"/><polygon points="1595.6,711.2 1614.6,711.2 1605.1,605.8"/></g><g fill="#100a16" opacity="0.96"><polygon points="1657.2,840.0 1789.0,840.0 1723.1,740.8"/><polygon points="1667.4,791.6 1778.8,791.6 1723.1,695.2"/><polygon points="1677.6,743.3 1768.6,743.3 1723.1,649.7"/><polygon points="1687.9,694.9 1758.4,694.9 1723.1,604.1"/><polygon points="1698.1,646.6 1748.2,646.6 1723.1,558.5"/><polygon points="1709.9,703.6 1736.3,703.6 1723.1,592.0"/></g><g fill="#100a16" opacity="0.96"><polygon points="1806.3,840.0 1934.8,840.0 1870.5,724.1"/><polygon points="1816.2,783.5 1924.8,783.5 1870.5,670.9"/><polygon points="1826.2,727.0 1914.9,727.0 1870.5,617.6"/><polygon points="1836.2,670.5 1904.9,670.5 1870.5,564.4"/><polygon points="1846.1,614.0 1895.0,614.0 1870.5,511.1"/><polygon points="1857.7,680.6 1883.4,680.6 1870.5,550.2"/></g>
  <g fill="#06060a"><polygon points="-5.0,1090.0 145.0,1090.0 70.0,866.0"/><polygon points="4.3,1002.6 135.7,1002.6 70.0,783.7"/><polygon points="13.6,915.3 126.4,915.3 70.0,701.4"/><polygon points="22.9,827.9 117.1,827.9 70.0,619.0"/><polygon points="32.2,740.6 107.8,740.6 70.0,536.7"/><polygon points="41.5,653.2 98.5,653.2 70.0,454.4"/><polygon points="55.0,782.0 85.0,782.0 70.0,530.0"/></g><g fill="#06060a"><polygon points="115.0,1090.0 245.0,1090.0 180.0,902.0"/><polygon points="123.1,1016.7 236.9,1016.7 180.0,832.9"/><polygon points="131.1,943.4 228.9,943.4 180.0,763.8"/><polygon points="139.2,870.0 220.8,870.0 180.0,694.7"/><polygon points="147.2,796.7 212.8,796.7 180.0,625.6"/><polygon points="155.3,723.4 204.7,723.4 180.0,556.5"/><polygon points="167.0,831.5 193.0,831.5 180.0,620.0"/></g><g fill="#06060a"><polygon points="245.0,1090.0 355.0,1090.0 300.0,946.0"/><polygon points="251.8,1033.8 348.2,1033.8 300.0,893.1"/><polygon points="258.6,977.7 341.4,977.7 300.0,840.2"/><polygon points="265.5,921.5 334.5,921.5 300.0,787.2"/><polygon points="272.3,865.4 327.7,865.4 300.0,734.3"/><polygon points="279.1,809.2 320.9,809.2 300.0,681.4"/><polygon points="289.0,892.0 311.0,892.0 300.0,730.0"/></g><g fill="#06060a"><polygon points="1565.0,1090.0 1715.0,1090.0 1640.0,882.0"/><polygon points="1574.3,1008.9 1705.7,1008.9 1640.0,805.6"/><polygon points="1583.6,927.8 1696.4,927.8 1640.0,729.1"/><polygon points="1592.9,846.6 1687.1,846.6 1640.0,652.7"/><polygon points="1602.2,765.5 1677.8,765.5 1640.0,576.2"/><polygon points="1611.5,684.4 1668.5,684.4 1640.0,499.8"/><polygon points="1625.0,804.0 1655.0,804.0 1640.0,570.0"/></g><g fill="#06060a"><polygon points="1697.5,1090.0 1862.5,1090.0 1780.0,850.0"/><polygon points="1707.7,996.4 1852.3,996.4 1780.0,761.8"/><polygon points="1718.0,902.8 1842.0,902.8 1780.0,673.6"/><polygon points="1728.2,809.2 1831.8,809.2 1780.0,585.4"/><polygon points="1738.4,715.6 1821.6,715.6 1780.0,497.2"/><polygon points="1748.7,622.0 1811.3,622.0 1780.0,409.0"/><polygon points="1763.5,760.0 1796.5,760.0 1780.0,490.0"/></g><g fill="#06060a"><polygon points="1805.0,1090.0 1935.0,1090.0 1870.0,906.0"/><polygon points="1813.1,1018.2 1926.9,1018.2 1870.0,838.4"/><polygon points="1821.1,946.5 1918.9,946.5 1870.0,770.8"/><polygon points="1829.2,874.7 1910.8,874.7 1870.0,703.1"/><polygon points="1837.2,803.0 1902.8,803.0 1870.0,635.5"/><polygon points="1845.3,731.2 1894.7,731.2 1870.0,567.9"/><polygon points="1857.0,837.0 1883.0,837.0 1870.0,630.0"/></g><g fill="#06060a"><polygon points="1450.0,1090.0 1550.0,1090.0 1500.0,958.0"/><polygon points="1456.2,1038.5 1543.8,1038.5 1500.0,909.5"/><polygon points="1462.4,987.0 1537.6,987.0 1500.0,861.0"/><polygon points="1468.6,935.6 1531.4,935.6 1500.0,812.5"/><polygon points="1474.8,884.1 1525.2,884.1 1500.0,764.0"/><polygon points="1481.0,832.6 1519.0,832.6 1500.0,715.4"/><polygon points="1490.0,908.5 1510.0,908.5 1500.0,760.0"/></g>
  <rect y="980" width="1920" height="100" fill="#0a090d"/>
</svg>
