<?xml version="1.0" standalone="no"?>
<!DOCTYPE svg PUBLIC "-//W3C//DTD SVG 20010904//EN"
 "http://www.w3.org/TR/2001/REC-SVG-20010904/DTD/svg10.dtd">
<svg version="1.0" xmlns="http://www.w3.org/2000/svg"
 width="1920.000000pt" height="1080.000000pt" viewBox="0 0 1920.000000 1080.000000"
 preserveAspectRatio="xMidYMid meet">

<g transform="translate(0.000000,1080.000000) scale(0.100000,-0.100000)"
fill="#000000" stroke="none">
<path d="M0 5400 l0 -5400 9600 0 9600 0 0 5400 0 5400 -9600 0 -9600 0 0
-5400z m9865 4860 c572 -54 1071 -352 1375 -821 66 -102 143 -246 164 -307
l14 -39 -86 -7 c-48 -3 -107 -8 -132 -10 -25 -2 -34 -1 -20 1 14 3 28 8 33 12
10 10 -19 67 -46 88 -24 19 -27 30 -13 51 9 15 -10 42 -30 42 -17 0 -18 -12
-1 -29 10 -10 6 -18 -21 -40 -27 -23 -33 -36 -37 -83 -4 -42 -2 -60 9 -71 20
-19 32 -67 17 -67 -6 0 -11 -6 -11 -12 0 -9 -22 -13 -79 -13 -72 0 -81 2 -100
25 -11 14 -20 30 -21 37 0 6 -5 15 -11 19 -8 4 -9 -1 -4 -17 7 -21 6 -22 -9
-10 -9 7 -16 18 -16 23 0 5 -7 25 -16 46 -10 20 -17 42 -18 49 -2 26 -82 96
-138 121 -37 17 -61 34 -64 47 -3 11 -22 31 -42 45 -20 14 -45 34 -54 45 -18
20 -18 20 -38 -4 -18 -21 -23 -23 -44 -11 -13 6 -33 9 -43 6 -12 -4 -25 0 -33
9 -7 8 -21 15 -31 15 -14 0 -19 7 -19 25 0 13 -9 40 -19 58 -11 19 -21 47 -23
63 -1 16 -9 34 -17 40 -11 8 -11 14 -1 30 10 17 8 26 -15 59 -14 22 -36 45
-48 52 l-22 11 25 6 c14 3 34 7 45 8 28 4 35 28 18 61 -16 32 -27 34 -56 6
l-22 -21 -9 26 c-6 14 -16 26 -23 26 -7 0 -13 5 -13 11 0 35 -58 51 -81 22
-13 -15 -11 -16 13 -11 15 3 31 2 37 -1 18 -11 39 -75 32 -95 -7 -19 -8 -18
-23 3 -15 21 -17 21 -21 4 -4 -15 -5 -14 -6 5 -1 25 -13 28 -30 8 -8 -10 -9
-16 -1 -21 5 -3 10 -16 10 -28 1 -28 23 -57 43 -57 11 0 14 -5 10 -17 -6 -15
-4 -16 8 -6 11 9 19 9 26 2 12 -12 6 -49 -9 -49 -5 0 -14 -14 -20 -30 -11 -34
-31 -35 -36 -3 -2 12 -12 29 -23 39 -10 9 -19 27 -19 39 0 11 -7 30 -15 41 -8
10 -15 28 -15 38 0 20 0 20 -15 0 -14 -19 -14 -18 -15 4 0 12 -5 22 -12 22 -6
0 -20 7 -30 16 -14 14 -20 14 -33 4 -12 -10 -16 -8 -25 14 -11 29 -6 48 23 88
12 16 25 24 35 20 10 -3 13 -1 8 6 -3 6 3 14 15 17 14 5 18 10 10 14 -7 4 -20
23 -29 42 -11 23 -25 35 -42 37 -14 2 -32 6 -40 9 -8 3 -19 5 -25 4 -13 -3
-87 20 -99 31 -6 4 -31 8 -56 8 -39 0 -48 -4 -57 -23 -10 -21 -20 -25 -83 -30
-64 -5 -78 -10 -127 -48 -40 -30 -58 -38 -66 -30 -14 14 -100 14 -113 1 -16
-16 -140 -25 -148 -11 -12 19 -50 12 -115 -20 -34 -17 -68 -29 -75 -26 -8 3
-18 1 -23 -4 -5 -5 -42 -11 -83 -14 -98 -7 -131 -11 -155 -20 -31 -11 50 58
135 115 235 160 582 273 895 293 28 2 61 4 75 5 14 1 75 -3 135 -8z m-200
-350 c3 -5 1 -10 -4 -10 -6 0 -11 5 -11 10 0 6 2 10 4 10 3 0 8 -4 11 -10z
m-336 -56 c-9 -11 -15 -12 -23 -4 -8 8 -7 13 4 20 20 12 33 1 19 -16z m-594
-13 c-6 -5 -25 10 -25 20 0 5 6 4 14 -3 8 -7 12 -15 11 -17z m223 -60 c-7 -12
-16 -21 -21 -21 -4 0 0 11 9 25 20 30 31 26 12 -4z m525 -10 c20 -34 14 -43
-21 -30 -31 12 -39 5 -50 -46 -4 -23 -14 -41 -23 -43 -12 -2 -15 8 -14 50 1
29 5 64 9 78 6 22 12 25 45 22 29 -3 42 -11 54 -31z m757 29 c0 -5 -4 -10 -10
-10 -5 0 -10 5 -10 10 0 6 5 10 10 10 6 0 10 -4 10 -10z m-1040 -10 c0 -5 -5
-10 -11 -10 -5 0 -7 5 -4 10 3 6 8 10 11 10 2 0 4 -4 4 -10z m100 2 c0 -4 -10
-12 -21 -17 -26 -12 -24 -31 3 -27 10 2 18 -1 18 -7 0 -5 2 -15 5 -23 7 -18
-43 -40 -64 -29 -9 5 -27 21 -40 35 -34 36 -76 35 -95 -2 -8 -15 -14 -35 -13
-42 3 -27 -16 -26 -23 1 -5 18 -2 33 11 50 15 20 26 24 76 24 46 0 62 5 82 23
23 21 61 30 61 14z m795 -42 c-3 -5 -10 -10 -16 -10 -5 0 -9 5 -9 10 0 6 7 10
16 10 8 0 12 -4 9 -10z m60 -40 c3 -5 -1 -10 -9 -10 -9 0 -16 5 -16 10 0 6 4
10 9 10 6 0 13 -4 16 -10z m-352 -35 c9 -19 32 -45 51 -57 25 -16 36 -32 40
-57 3 -19 3 -37 0 -40 -8 -8 -23 21 -17 35 2 6 -7 20 -22 31 -14 10 -41 30
-58 46 -17 15 -37 27 -44 27 -20 0 -24 18 -7 34 24 24 39 19 57 -19z m-897
-12 c-10 -10 -19 5 -10 18 6 11 8 11 12 0 2 -7 1 -15 -2 -18z m64 -24 c0 -6
-4 -7 -10 -4 -5 3 -10 11 -10 16 0 6 5 7 10 4 6 -3 10 -11 10 -16z m74 -1 c-3
-7 -16 -21 -29 -31 -24 -17 -25 -17 -25 1 0 10 10 24 23 30 30 14 37 14 31 0z
m886 -20 c0 -11 -12 -10 -30 2 -12 7 -10 9 8 7 12 0 22 -5 22 -9z m-1577 -25
c-9 -16 -24 -36 -32 -46 -13 -15 -13 -20 -2 -27 10 -5 6 -8 -12 -7 -25 2 -26
3 -10 27 16 24 65 80 71 80 1 0 -5 -12 -15 -27z m174 -5 c-3 -8 -6 -5 -6 6 -1
11 2 17 5 13 3 -3 4 -12 1 -19z m280 16 c-3 -3 -12 -4 -19 -1 -8 3 -5 6 6 6
11 1 17 -2 13 -5z m-237 -14 c0 -5 -5 -10 -11 -10 -5 0 -7 5 -4 10 3 6 8 10
11 10 2 0 4 -4 4 -10z m-80 -50 c0 -5 -5 -10 -11 -10 -5 0 -7 5 -4 10 3 6 8
10 11 10 2 0 4 -4 4 -10z m43 -13 c4 3 7 -1 7 -10 0 -9 2 -17 4 -17 2 0 13 -3
23 -7 16 -6 17 -5 3 12 -14 17 -13 18 3 12 10 -4 23 -7 28 -7 17 0 9 -22 -21
-60 -16 -21 -30 -42 -30 -47 0 -17 -40 -52 -54 -47 -9 3 -13 -1 -13 -12 1 -9
-4 -19 -11 -21 -7 -3 -10 1 -6 10 3 8 1 18 -4 21 -10 6 -52 -94 -52 -125 0
-11 -4 -17 -10 -14 -5 3 -10 16 -10 28 -1 22 -1 22 -21 -2 -11 -13 -21 -22
-22 -20 -1 2 -11 14 -22 27 -11 14 -15 26 -9 30 17 13 44 61 44 81 0 30 11 51
26 51 7 0 16 11 20 25 4 14 9 24 12 21 11 -11 32 17 32 43 0 20 2 23 10 11 6
-10 10 -11 10 -2 0 6 7 12 15 12 8 0 15 5 15 11 0 8 4 9 13 0 8 -6 17 -8 20
-4z m-266 -49 c-3 -8 -6 -5 -6 6 -1 11 2 17 5 13 3 -3 4 -12 1 -19z m-31 -36
c-17 -16 -18 -16 -5 5 7 12 15 20 18 17 3 -2 -3 -12 -13 -22z m-86 -152 c-6
-11 -13 -20 -16 -20 -2 0 0 9 6 20 6 11 13 20 16 20 2 0 0 -9 -6 -20z m1460
-80 c0 -5 -7 -10 -16 -10 -8 0 -12 5 -9 10 3 6 10 10 16 10 5 0 9 -4 9 -10z
m1094 -82 c13 21 36 13 36 -12 0 -23 -2 -24 -35 -13 -33 10 -44 25 -28 41 4 4
10 -1 13 -10 5 -12 9 -14 14 -6z m485 -30 c1 -5 -3 -8 -9 -8 -5 0 -10 12 -9
28 0 24 1 25 9 7 5 -11 9 -23 9 -27z m84 -79 c12 -6 32 -22 43 -36 18 -21 25
-23 42 -14 35 19 80 13 96 -11 30 -47 60 -235 60 -380 -1 -76 -3 -141 -6 -144
-4 -3 -16 -1 -27 6 -20 10 -20 9 -9 -15 6 -14 17 -25 25 -25 15 0 18 -75 4
-130 -5 -19 -12 -53 -16 -74 -5 -30 -9 -36 -16 -25 -7 10 -8 7 -4 -11 10 -41
-42 -195 -115 -347 -83 -172 -143 -264 -277 -420 -51 -59 -54 -61 -79 -48 -14
7 -31 21 -39 31 -16 22 -18 16 -15 -53 1 -39 -2 -44 -62 -94 -80 -67 -243
-173 -339 -221 -316 -158 -586 -218 -923 -205 -241 9 -440 60 -663 167 -368
177 -662 460 -832 798 -70 140 -124 327 -146 507 -6 48 -5 49 8 20 8 -16 16
-47 20 -68 3 -21 13 -51 21 -68 9 -17 18 -46 22 -65 3 -19 10 -34 14 -34 4 0
10 -13 14 -30 3 -18 12 -30 22 -30 12 0 15 -8 13 -33 -2 -18 2 -40 8 -48 7 -8
24 -27 38 -44 14 -16 44 -61 67 -100 50 -86 47 -82 58 -65 8 12 10 11 10 -6 0
-11 13 -35 29 -53 24 -27 30 -29 33 -15 2 13 6 10 17 -12 7 -16 17 -36 21 -44
4 -8 22 -25 41 -37 19 -13 40 -28 48 -35 12 -10 13 -8 9 10 -4 12 -3 22 0 22
4 0 18 3 31 7 20 5 22 3 16 -16 -7 -24 35 -101 55 -101 13 0 -7 40 -29 58 -14
11 -13 12 5 3 14 -7 24 -7 31 0 7 7 13 -1 17 -25 7 -39 24 -56 36 -36 5 7 16
9 29 5 17 -5 20 -10 11 -20 -9 -10 -7 -16 7 -23 20 -10 43 -5 56 12 5 6 5 0 2
-14 -12 -42 -11 -44 15 -45 14 -1 43 -13 65 -28 39 -27 40 -27 49 -7 11 24 24
26 32 5 4 -8 16 -15 28 -15 21 -1 21 -1 2 -15 -19 -15 -19 -15 2 -15 28 0 28
-8 0 -37 l-22 -23 20 -20 20 -20 24 24 23 25 -31 -8 c-24 -7 -30 -6 -25 5 6
17 38 27 63 19 36 -11 21 12 -18 27 -27 11 -38 21 -39 38 -1 13 -8 27 -15 33
-9 6 -6 6 7 1 17 -7 58 -7 130 0 12 1 19 8 19 18 -1 11 5 15 17 13 27 -5 39
-14 39 -29 0 -8 10 -16 23 -20 36 -9 47 -7 47 10 0 13 7 15 30 11 33 -7 51 8
20 16 -28 7 -25 20 11 56 17 17 26 31 20 31 -5 0 -13 -5 -16 -10 -7 -12 -25
-4 -25 11 0 16 47 10 73 -11 14 -11 27 -20 30 -20 2 0 14 9 27 20 25 22 52 28
32 8 -17 -17 -15 -31 4 -24 9 3 27 -3 41 -14 14 -11 32 -20 39 -20 20 0 30 50
13 61 -10 6 -11 9 -1 9 6 0 12 7 12 15 0 10 9 14 29 11 33 -4 80 17 62 28 -22
14 -11 26 24 26 26 0 39 6 50 24 16 24 46 29 72 13 6 -4 14 -3 18 3 8 14 24 3
35 -24 l9 -21 0 23 c1 13 7 22 16 22 9 0 21 11 27 25 6 14 20 25 30 25 50 0
83 55 38 62 -20 3 -20 4 3 38 l24 35 -29 23 c-25 21 -28 21 -28 6 0 -14 -3
-15 -12 -6 -9 9 -8 16 4 29 39 45 41 61 11 108 -19 30 -33 43 -44 39 -9 -2
-24 2 -32 10 -8 8 -17 12 -21 9 -3 -4 -12 7 -18 25 -13 35 -34 37 -67 8 -20
-18 -20 -18 -15 10 3 16 9 33 15 40 5 6 6 14 2 17 -3 4 2 7 11 7 15 0 17 6 11
40 -7 43 4 54 20 18 15 -32 33 -33 41 -2 6 25 8 26 14 9 6 -18 7 -18 12 2 5
17 0 23 -21 28 -25 6 -25 7 -7 21 11 7 18 15 15 17 -14 12 -78 47 -84 47 -4 0
-5 -7 -2 -14 4 -10 1 -13 -9 -9 -7 3 -14 14 -14 24 0 11 -7 22 -15 25 -9 4
-13 15 -11 27 3 12 5 25 5 29 1 4 10 10 21 13 11 3 20 12 20 20 0 7 11 16 24
19 15 4 34 22 47 46 25 45 43 51 54 18 6 -21 8 -21 12 -4 3 10 0 22 -6 26 -13
7 -5 37 16 58 7 7 13 25 14 40 0 15 3 21 6 15 7 -18 23 -16 23 3 0 14 2 14 16
3 13 -11 15 -26 11 -74 -7 -73 1 -90 37 -81 19 5 26 13 26 30 0 19 7 26 33 31
39 9 110 49 100 58 -3 4 1 7 10 7 11 0 17 -8 17 -21 0 -11 7 -28 16 -37 11
-10 13 -17 5 -20 -7 -2 -8 -14 -4 -29 5 -21 3 -25 -9 -20 -18 7 -32 -39 -15
-50 6 -3 7 -1 3 5 -4 7 -4 12 1 12 12 0 43 -58 43 -80 0 -10 7 -21 16 -24 8
-3 12 -10 9 -16 -3 -5 -2 -10 4 -10 6 0 21 -11 35 -24 18 -19 24 -34 22 -62
-1 -33 2 -38 31 -51 22 -9 33 -20 33 -34 0 -11 4 -18 8 -15 5 3 21 -8 36 -25
15 -16 32 -29 37 -29 5 0 9 -7 9 -15 0 -8 5 -15 10 -15 6 0 10 -7 10 -15 0 -8
6 -15 14 -15 20 0 37 25 30 44 -4 10 6 28 29 51 50 50 58 46 51 -25 -6 -66 4
-90 38 -90 10 0 16 -4 13 -10 -4 -6 6 -10 23 -10 17 0 32 6 34 13 2 6 3 49 2
95 -1 45 2 82 7 82 5 0 9 11 9 23 0 27 28 57 50 54 29 -5 40 -18 40 -49 0 -22
6 -31 21 -35 14 -4 18 -11 13 -22 -11 -26 -20 -93 -19 -138 1 -35 -2 -43 -21
-47 -13 -4 -26 -15 -29 -27 -5 -15 -10 -18 -18 -10 -17 17 -27 13 -27 -9 0
-11 -4 -20 -9 -20 -5 0 -11 -20 -13 -45 -2 -31 1 -45 9 -45 7 0 10 -7 6 -16
-5 -15 -3 -15 20 1 15 9 27 25 27 35 0 34 22 78 41 83 22 6 26 27 4 27 -8 0
-15 5 -15 10 0 6 6 10 13 10 8 0 22 9 32 20 24 26 43 11 51 -41 7 -42 28 -51
49 -23 10 14 15 14 34 4 12 -6 29 -9 37 -6 8 3 26 1 40 -4 l26 -10 -22 -18
c-20 -16 -21 -21 -9 -40 8 -12 21 -22 29 -22 23 1 75 51 91 88 8 17 17 32 21
32 14 0 66 55 71 75 3 13 5 9 6 -12 0 -18 -3 -33 -9 -33 -5 0 -10 -8 -10 -17
0 -15 2 -16 10 -3 13 21 13 -5 0 -30 -10 -19 -9 -19 20 -2 19 11 34 29 40 52
13 46 13 80 -1 80 -6 0 -9 6 -6 13 2 6 14 12 27 12 17 0 26 8 33 30 6 17 15
33 21 37 7 5 7 14 -1 30 -17 37 -22 133 -9 218 6 42 5 44 -10 25 -8 -11 -19
-27 -24 -35 -7 -12 -13 -13 -27 -4 -20 12 -31 74 -14 74 6 0 11 -17 11 -37 1
-32 2 -35 11 -19 6 10 9 33 6 52 -6 38 17 69 33 44 7 -11 11 -9 18 10 6 14 6
26 1 28 -5 2 -6 9 -2 15 7 12 20 88 28 162 4 39 4 39 -4 5 l-8 -35 -11 28 c-7
16 -12 55 -12 88 0 38 -4 58 -10 54 -5 -3 -10 -18 -10 -32 0 -20 -3 -23 -13
-14 -8 6 -17 8 -20 4 -4 -3 -7 -1 -7 5 0 7 -7 12 -15 12 -8 0 -15 9 -15 19 0
32 -11 50 -26 44 -8 -3 -14 -11 -14 -18 0 -8 -5 -17 -12 -21 -8 -5 -9 2 -5 26
6 27 4 31 -9 26 -21 -8 -47 20 -41 44 3 11 1 23 -4 26 -11 6 -12 44 -1 44 4 0
7 12 7 28 -1 15 0 30 2 35 6 10 41 9 66 -4z m-78 -19 c3 -5 1 -10 -4 -10 -6 0
-11 5 -11 10 0 6 2 10 4 10 3 0 8 -4 11 -10z m-55 -16 c0 -8 -5 -12 -10 -9 -6
4 -8 11 -5 16 9 14 15 11 15 -7z m-2510 -48 c0 -3 -4 -8 -10 -11 -5 -3 -10 -1
-10 4 0 6 5 11 10 11 6 0 10 -2 10 -4z m140 -166 c0 -5 -7 -10 -15 -10 -8 0
-15 5 -15 10 0 6 7 10 15 10 8 0 15 -4 15 -10z m50 0 c0 -5 -4 -10 -10 -10 -5
0 -10 5 -10 10 0 6 5 10 10 10 6 0 10 -4 10 -10z m1876 -74 c6 -24 -10 -66
-24 -66 -10 0 -15 67 -7 80 11 17 24 11 31 -14z m-509 -2 c-3 -3 -12 -4 -19
-1 -8 3 -5 6 6 6 11 1 17 -2 13 -5z m-1993 -20 c11 -28 7 -37 -10 -23 -15 12
-16 11 -10 -8 4 -12 2 -24 -3 -27 -15 -10 -23 31 -11 54 13 24 26 26 34 4z
m2332 -19 c-1 -20 -3 -22 -15 -11 -7 8 -10 19 -7 25 12 19 24 12 22 -14z m626
3 c5 -14 -20 -44 -28 -35 -8 8 6 47 16 47 5 0 10 -6 12 -12z m-834 -30 c-5
-15 -48 -24 -48 -10 0 14 12 22 33 22 10 0 17 -5 15 -12z m-128 -23 c7 -9 11
-18 8 -20 -9 -10 -38 7 -38 21 0 18 14 18 30 -1z m517 -24 c3 -12 11 -17 19
-14 9 3 14 -1 14 -12 0 -12 5 -15 16 -11 14 5 16 1 11 -29 -3 -19 -16 -49 -28
-66 -18 -25 -21 -40 -17 -90 2 -32 1 -59 -4 -59 -4 0 -8 -13 -8 -29 0 -17 -3
-32 -7 -34 -16 -9 -48 11 -54 34 -7 23 -7 23 -8 -3 -1 -16 -6 -28 -12 -28 -6
0 -8 -9 -4 -20 8 -25 -3 -26 -20 -3 -10 14 -10 19 0 28 10 8 10 16 -1 40 -13
29 -14 29 -20 8 -3 -13 -10 -23 -15 -23 -5 0 -8 -3 -8 -7 4 -22 -3 -32 -16
-27 -11 4 -15 -1 -16 -17 l0 -24 -11 23 c-8 16 -8 29 0 48 7 14 12 34 12 44 0
10 7 23 16 28 12 6 13 11 5 16 -7 5 4 25 34 59 25 28 45 58 45 67 1 12 4 11
15 -4 13 -17 14 -15 20 18 4 20 4 47 1 61 -4 14 -4 30 -1 35 10 17 37 11 42
-9z m219 -18 c-11 -11 -19 6 -11 24 8 17 8 17 12 0 3 -10 2 -21 -1 -24z m-876
1 c0 -8 -4 -12 -10 -9 -5 3 -10 10 -10 16 0 5 5 9 10 9 6 0 10 -7 10 -16z
m524 1 c3 -9 0 -15 -9 -15 -8 0 -15 7 -15 15 0 8 4 15 9 15 5 0 11 -7 15 -15z
m-467 -21 c-9 -9 -28 6 -21 18 4 6 10 6 17 -1 6 -6 8 -13 4 -17z m777 1 c-4
-10 0 -15 10 -15 9 0 19 -8 22 -17 19 -59 44 -77 44 -33 0 13 5 17 15 14 8 -4
12 -10 9 -15 -3 -5 2 -6 10 -3 11 4 16 0 16 -10 0 -9 3 -15 8 -15 25 4 34 -1
23 -15 -11 -13 -15 -12 -32 5 -23 23 -39 25 -39 4 0 -8 4 -15 8 -15 5 0 15
-11 22 -25 15 -28 35 -33 44 -10 7 20 26 19 26 -1 0 -8 4 -13 9 -10 5 3 7 15
4 27 -7 24 10 39 44 39 16 0 27 -10 37 -34 8 -18 19 -37 25 -40 6 -4 11 -18
11 -31 0 -13 5 -27 10 -30 8 -5 7 -12 -2 -23 -10 -12 -10 -16 0 -19 6 -3 12
-14 12 -25 0 -20 1 -20 26 -3 14 9 28 14 31 11 3 -3 -2 -8 -11 -12 -9 -3 -13
-10 -10 -15 3 -5 9 -7 14 -4 5 3 11 1 15 -5 4 -6 -6 -10 -24 -10 -20 0 -31 -5
-31 -14 0 -9 7 -12 20 -9 19 5 27 -7 13 -20 -14 -15 -14 -87 0 -108 14 -19 15
-19 22 -2 5 10 9 24 11 31 7 37 14 44 29 32 22 -18 19 -35 -15 -72 -16 -18
-30 -29 -30 -24 0 14 -32 -17 -40 -40 -14 -37 -120 -39 -120 -3 0 11 3 18 8
16 10 -7 6 94 -5 102 -5 3 -9 29 -10 56 -1 86 -2 88 -20 81 -9 -4 -20 -1 -25
6 -6 10 -10 10 -18 -2 -8 -13 -11 -11 -16 8 -4 13 -12 21 -19 18 -8 -3 -15 7
-18 24 -5 21 -14 30 -36 35 -32 7 -42 27 -29 63 4 13 3 33 -4 50 -11 26 -12
26 -15 5 -3 -14 -12 -23 -23 -23 -24 0 -35 17 -21 34 13 15 5 26 -19 26 -13 0
-16 6 -12 28 2 15 9 33 15 40 14 17 38 15 31 -3z m-74 -48 c0 -8 -7 -14 -15
-14 -16 0 -19 9 -8 20 11 11 23 8 23 -6z m-280 -77 c0 -5 -4 -10 -10 -10 -5 0
-10 5 -10 10 0 6 5 10 10 10 6 0 10 -4 10 -10z m-1665 -10 c-3 -5 -2 -10 3
-10 5 0 12 -9 15 -21 4 -15 0 -23 -14 -26 -10 -3 -19 -12 -19 -19 0 -19 13
-17 38 6 12 11 24 20 27 20 3 0 5 -9 5 -20 0 -20 -3 -21 -55 -24 -32 -1 -32
-2 -20 74 4 32 3 30 16 30 5 0 7 -4 4 -10z m2485 -119 c0 -10 -7 -22 -16 -25
-8 -3 -13 -2 -11 2 2 4 7 15 10 25 8 23 17 22 17 -2z m-2100 -31 c0 -11 -4
-20 -10 -20 -5 0 -10 2 -10 4 0 2 -3 11 -6 20 -4 11 -1 16 10 16 9 0 16 -8 16
-20z m353 -10 c-10 -11 -19 -20 -21 -20 -1 0 2 9 8 20 6 11 15 20 20 20 6 0 2
-9 -7 -20z m1731 -26 c4 -10 1 -14 -6 -12 -15 5 -23 28 -10 28 5 0 13 -7 16
-16z m-662 -9 c0 -5 -5 -11 -11 -13 -6 -2 -11 4 -11 13 0 9 5 15 11 13 6 -2
11 -8 11 -13z m-1006 -22 c-10 -10 -19 5 -10 18 6 11 8 11 12 0 2 -7 1 -15 -2
-18z m54 1 c0 -3 -4 -2 -10 1 -5 3 -10 1 -10 -5 0 -6 -4 -8 -10 -5 -5 3 -10
13 -10 21 0 12 4 12 20 4 11 -6 20 -13 20 -16z m7 -56 c9 -7 4 -19 -21 -44
-18 -19 -37 -34 -41 -34 -4 0 -5 19 -1 43 4 23 8 47 8 54 1 12 27 3 55 -19z
m913 -15 c-11 -17 -11 -17 -6 0 3 10 7 26 7 35 1 15 2 15 6 0 2 -10 -1 -25 -7
-35z m-1412 -7 c3 -12 -1 -17 -10 -14 -7 3 -15 13 -16 22 -3 12 1 17 10 14 7
-3 15 -13 16 -22z m155 -1 c-3 -13 -53 -20 -53 -7 0 15 13 23 35 20 11 -2 19
-7 18 -13z m1069 -7 c-7 -7 -12 -8 -12 -2 0 14 12 26 19 19 2 -3 -1 -11 -7
-17z m-899 -44 c3 -3 3 -12 1 -19 -7 -17 -44 -7 -44 11 0 14 31 20 43 8z
m1552 -14 c3 -5 1 -10 -4 -10 -6 0 -11 5 -11 10 0 6 2 10 4 10 3 0 8 -4 11
-10z m-2285 -14 c0 -3 -4 -8 -10 -11 -5 -3 -10 -1 -10 4 0 6 5 11 10 11 6 0
10 -2 10 -4z m2066 -61 c-3 -9 -11 -13 -16 -10 -8 5 -7 11 1 21 14 18 24 11
15 -11z m-1322 -47 c5 -23 3 -28 -12 -28 -15 0 -17 6 -14 36 5 39 16 35 26 -8z
m204 20 c-6 -18 -28 -21 -28 -4 0 9 7 16 16 16 9 0 14 -5 12 -12z m1367 -18
c3 -5 3 -15 -1 -21 -6 -11 -23 6 -24 24 0 10 18 9 25 -3z m46 -43 c-10 -9 -11
-8 -5 6 3 10 9 15 12 12 3 -3 0 -11 -7 -18z m-2381 -7 c0 -5 -4 -10 -10 -10
-5 0 -10 5 -10 10 0 6 5 10 10 10 6 0 10 -4 10 -10z m990 -10 c0 -5 -5 -10
-11 -10 -5 0 -7 5 -4 10 3 6 8 10 11 10 2 0 4 -4 4 -10z m10 -121 c0 -5 -7 -9
-15 -9 -9 0 -15 9 -15 21 0 18 2 19 15 9 8 -7 15 -16 15 -21z m-210 -29 c0 -5
-4 -10 -10 -10 -5 0 -10 5 -10 10 0 6 5 10 10 10 6 0 10 -4 10 -10z m50 0 c0
-5 -5 -10 -11 -10 -5 0 -7 5 -4 10 3 6 8 10 11 10 2 0 4 -4 4 -10z m-175 -40
c-3 -5 -12 -10 -18 -10 -7 0 -6 4 3 10 19 12 23 12 15 0z m2032 -12 c-3 -8 -6
-5 -6 6 -1 11 2 17 5 13 3 -3 4 -12 1 -19z m-10 -60 c-3 -7 -5 -2 -5 12 0 14
2 19 5 13 2 -7 2 -19 0 -25z m-3014 -7 c2 -11 0 -24 -6 -30 -8 -8 -7 -11 3
-11 7 0 11 -2 8 -5 -2 -3 -19 0 -36 6 -27 9 -30 14 -21 30 5 11 14 17 20 14 5
-4 9 -1 9 4 0 19 17 12 23 -8z m1292 10 c3 -5 1 -12 -5 -16 -5 -3 -10 1 -10 9
0 18 6 21 15 7z m-575 -61 c0 -5 -7 -10 -15 -10 -8 0 -15 5 -15 10 0 6 7 10
15 10 8 0 15 -4 15 -10z m2277 -32 c-3 -8 -6 -5 -6 6 -1 11 2 17 5 13 3 -3 4
-12 1 -19z m-2367 -112 c-6 -6 -15 -5 -23 2 -8 7 -18 8 -22 4 -5 -4 -6 -2 -3
3 3 6 8 19 12 30 7 19 8 19 26 -5 11 -15 15 -29 10 -34z m85 45 c3 -5 1 -12
-5 -16 -5 -3 -10 1 -10 9 0 18 6 21 15 7z m75 -47 c0 -8 -4 -14 -10 -14 -5 0
-10 4 -10 9 0 5 -3 18 -7 28 -6 16 -5 16 10 4 9 -7 17 -20 17 -27z m258 18 c6
-18 -15 -14 -22 4 -4 10 -1 14 6 12 6 -2 14 -10 16 -16z m1471 -121 c-14 -11
-26 -15 -28 -9 -4 12 17 28 38 28 8 0 3 -8 -10 -19z m408 -103 c-3 -8 -6 -5
-6 6 -1 11 2 17 5 13 3 -3 4 -12 1 -19z m1380 -25 c-3 -10 -5 -4 -5 12 0 17 2
24 5 18 2 -7 2 -21 0 -30z m-1164 -145 c-12 -22 -23 -2 -22 40 l1 47 13 -40
c7 -22 10 -43 8 -47z m-93 16 c0 -19 -4 -34 -10 -34 -5 0 -10 18 -10 41 0 24
4 38 10 34 6 -3 10 -22 10 -41z m-53 -807 c-2 -23 -3 -1 -3 48 0 50 1 68 3 42
2 -26 2 -67 0 -90z m-635 41 c-8 -8 -9 -4 -5 13 4 13 8 18 11 10 2 -7 -1 -18
-6 -23z m625 -210 c-2 -18 -4 -4 -4 32 0 36 2 50 4 33 2 -18 2 -48 0 -65z
m1281 60 c-6 -18 -28 -21 -28 -4 0 9 7 16 16 16 9 0 14 -5 12 -12z m2 -48 c0
-5 -7 -10 -15 -10 -8 0 -15 5 -15 10 0 6 7 10 15 10 8 0 15 -4 15 -10z m-1246
-54 c-3 -15 -8 -25 -11 -23 -2 3 -1 17 3 31 3 15 8 25 11 23 2 -3 1 -17 -3
-31z m-534 -46 c0 -37 -4 -50 -14 -50 -22 0 -27 15 -20 59 10 61 34 54 34 -9z
m-650 -444 c0 -8 -7 -16 -15 -20 -15 -5 -21 14 -8 27 11 12 23 8 23 -7z m2267
-8 c-3 -8 -6 -5 -6 6 -1 11 2 17 5 13 3 -3 4 -12 1 -19z m-2357 -9 c0 -5 -4
-9 -10 -9 -5 0 -10 7 -10 16 0 8 5 12 10 9 6 -3 10 -10 10 -16z m90 -38 c0
-10 -7 -21 -15 -25 -11 -4 -15 1 -15 19 0 16 6 25 15 25 8 0 15 -9 15 -19z
m-90 -25 c0 -21 -6 -36 -15 -40 -12 -4 -15 3 -15 34 0 29 4 40 15 40 10 0 15
-10 15 -34z m27 -13 c-3 -10 -5 -2 -5 17 0 19 2 27 5 18 2 -10 2 -26 0 -35z
m-957 -297 c0 -3 -4 -8 -10 -11 -5 -3 -10 -1 -10 4 0 6 5 11 10 11 6 0 10 -2
10 -4z m-856 -92 c3 -8 2 -12 -4 -9 -6 3 -10 10 -10 16 0 14 7 11 14 -7z
m1378 -46 c-4 -17 -31 -33 -40 -23 -3 3 0 11 6 17 7 7 12 22 12 33 0 12 3 25
7 29 10 9 21 -33 15 -56z m36 27 c-3 -3 -9 2 -12 12 -6 14 -5 15 5 6 7 -7 10
-15 7 -18z m1701 -219 c6 -33 11 -72 11 -88 0 -26 -3 -29 -27 -26 -26 3 -28 6
-31 56 -2 42 1 57 15 69 17 13 17 14 1 9 -14 -4 -18 1 -18 23 0 69 33 40 49
-43z m-3233 47 c-10 -10 -19 5 -10 18 6 11 8 11 12 0 2 -7 1 -15 -2 -18z
m2024 -87 c0 -8 -7 -17 -16 -20 -21 -8 -26 -3 -18 18 8 20 34 21 34 2z m-134
-45 c-4 -6 -14 -11 -22 -11 -12 0 -13 4 -3 21 7 14 14 18 21 11 6 -6 7 -15 4
-21z m134 -27 c0 -17 -5 -24 -20 -24 -14 0 -20 7 -20 24 0 23 17 38 33 29 4
-2 7 -15 7 -29z m1153 11 c4 -8 2 -17 -3 -20 -6 -4 -10 3 -10 14 0 25 6 27 13
6z m-1285 -85 c2 -58 0 -70 -13 -70 -8 0 -15 3 -16 8 -1 4 -3 35 -5 70 -3 54
-1 62 14 62 14 0 17 -11 20 -70z m130 -2 c-2 -21 -8 -33 -18 -33 -10 0 -16 12
-18 33 -3 27 0 32 18 32 18 0 21 -5 18 -32z m-818 -3 c0 -8 -7 -15 -15 -15 -8
0 -15 7 -15 15 0 8 7 15 15 15 8 0 15 -7 15 -15z m-5 -55 c0 -7 -6 -15 -12
-17 -8 -3 -13 4 -13 17 0 13 5 20 13 18 6 -3 12 -11 12 -18z m3 -73 c-5 -48
-28 -46 -28 2 0 32 3 39 16 34 10 -4 14 -16 12 -36z m332 2 c0 -11 -4 -18 -10
-14 -5 3 -14 -9 -19 -27 -7 -26 -9 -28 -10 -10 -1 20 25 72 35 72 2 0 4 -9 4
-21z m-57 -29 c-3 -11 -7 -20 -9 -20 -2 0 -4 9 -4 20 0 11 4 20 9 20 5 0 7 -9
4 -20z m-1726 -87 c-2 -21 -4 -6 -4 32 0 39 2 55 4 38 2 -18 2 -50 0 -70z
m1793 67 c0 -5 -4 -10 -10 -10 -5 0 -10 5 -10 10 0 6 5 10 10 10 6 0 10 -4 10
-10z m-1650 -116 c0 -38 -11 -54 -36 -54 -6 0 -2 122 4 134 9 17 31 -40 32
-80z m1610 66 c0 -5 -5 -10 -11 -10 -5 0 -7 5 -4 10 3 6 8 10 11 10 2 0 4 -4
4 -10z m-43 -22 c-3 -8 -6 -5 -6 6 -1 11 2 17 5 13 3 -3 4 -12 1 -19z m-1720
-170 c-2 -18 -4 -4 -4 32 0 36 2 50 4 33 2 -18 2 -48 0 -65z m-443 24 c3 -5
-1 -9 -9 -9 -8 0 -12 4 -9 9 3 4 7 8 9 8 2 0 6 -4 9 -8z m390 -83 c-8 -17 -9
-13 -9 21 0 34 1 38 9 21 5 -13 5 -29 0 -42z m-423 25 c22 -25 22 -26 3 -16
-12 6 -24 18 -28 27 -8 21 -3 19 25 -11z m394 8 c-3 -3 -11 0 -18 7 -9 10 -8
11 6 5 10 -3 15 -9 12 -12z m-155 -6 c0 -2 -9 -6 -20 -9 -11 -3 -18 -1 -14 4
5 9 34 13 34 5z m-659 -47 c-6 -16 -10 -18 -10 -7 -1 22 12 55 16 42 2 -6 -1
-22 -6 -35z m747 9 c-2 -12 -9 -23 -16 -26 -11 -3 -12 0 -3 16 6 10 7 22 4 26
-3 3 -1 6 6 6 7 0 11 -9 9 -22z m-848 5 c0 -5 -8 -21 -19 -36 -18 -27 -19 -28
-24 -7 -4 17 -2 20 10 16 10 -4 13 -2 10 8 -3 8 -3 17 0 20 9 8 23 7 23 -1z
m784 -18 c26 -24 36 -75 15 -75 -5 0 -9 8 -8 18 3 36 -1 52 -16 52 -8 0 -15
-5 -15 -11 0 -5 -5 -7 -12 -3 -9 6 -9 9 0 12 7 2 12 8 12 13 0 4 -7 6 -15 3
-8 -4 -15 -1 -15 5 0 19 26 12 54 -14z m31 15 c3 -5 1 -10 -4 -10 -6 0 -11 5
-11 10 0 6 2 10 4 10 3 0 8 -4 11 -10z"/>
<path d="M10026 10038 c-9 -5 -33 -7 -52 -4 -27 6 -34 4 -34 -9 0 -8 5 -15 12
-15 6 0 8 -3 5 -7 -9 -9 35 -30 53 -26 18 5 52 60 42 67 -4 2 -16 0 -26 -6z"/>
<path d="M10317 9996 c-5 -11 41 -56 58 -56 13 0 3 32 -15 50 -23 23 -36 25
-43 6z"/>
<path d="M10205 9970 c-3 -5 -3 -10 2 -11 4 0 18 -2 31 -5 25 -4 30 11 6 20
-22 8 -32 8 -39 -4z"/>
<path d="M10245 9908 c8 -26 49 -68 66 -68 6 0 0 12 -15 26 -27 28 -33 44 -16
44 6 0 10 -4 10 -10 0 -15 56 -12 69 4 15 18 -13 30 -39 16 -13 -7 -21 -7 -25
0 -3 5 -17 10 -31 10 -22 0 -24 -3 -19 -22z"/>
<path d="M10152 9891 c-10 -6 -11 -13 -1 -34 15 -32 41 -25 37 11 -3 28 -16
36 -36 23z"/>
<path d="M10380 9880 c-12 -8 -11 -13 9 -34 20 -21 20 -24 5 -23 -10 1 -20 -6
-22 -15 -6 -28 46 -24 57 4 10 28 3 58 -14 58 -7 0 -15 4 -17 10 -2 6 -9 6
-18 0z"/>
<path d="M10650 9872 c0 -11 22 -32 32 -32 5 0 4 9 -2 20 -11 20 -30 28 -30
12z"/>
<path d="M10620 9730 c0 -5 9 -10 21 -10 11 0 17 -4 14 -10 -3 -5 -2 -10 4
-10 5 0 11 6 14 13 3 8 10 6 21 -8 19 -24 21 -7 2 18 -14 18 -76 24 -76 7z"/>
<path d="M10670 9659 c-19 -10 -29 -18 -22 -19 19 0 14 -15 -14 -43 -14 -14
-23 -31 -19 -36 3 -6 1 -20 -5 -31 -9 -16 -8 -25 1 -36 6 -8 14 -12 17 -10 2
3 22 -21 43 -54 37 -58 71 -86 89 -75 5 3 14 -3 19 -13 7 -13 25 -21 56 -24
31 -4 51 -13 63 -29 18 -21 22 -22 51 -10 17 8 31 19 32 25 7 70 6 177 -2 181
-5 4 -9 15 -9 26 0 35 -30 67 -79 84 -26 8 -55 13 -65 9 -20 -8 -56 22 -56 47
0 21 -17 34 -22 18 -3 -9 -9 -9 -24 -1 -14 8 -27 6 -54 -9z m275 -358 c-3 -6
-11 -8 -17 -5 -6 4 -5 9 3 15 16 10 23 4 14 -10z"/>
<path d="M10860 9660 c0 -5 5 -10 10 -10 6 0 10 5 10 10 0 6 -4 10 -10 10 -5
0 -10 -4 -10 -10z"/>
<path d="M10451 9614 c0 -11 3 -14 6 -6 3 7 2 16 -1 19 -3 4 -6 -2 -5 -13z"/>
<path d="M11143 9363 c4 -54 50 -143 74 -143 11 0 13 5 8 18 -4 9 -11 35 -15
57 -9 50 -41 114 -57 115 -9 0 -12 -15 -10 -47z"/>
<path d="M8530 9444 c0 -9 5 -14 12 -12 18 6 21 28 4 28 -9 0 -16 -7 -16 -16z"/>
<path d="M8510 9410 c0 -5 5 -10 10 -10 6 0 10 5 10 10 0 6 -4 10 -10 10 -5 0
-10 -4 -10 -10z"/>
<path d="M11330 8925 c0 -8 5 -15 10 -15 6 0 10 7 10 15 0 8 -4 15 -10 15 -5
0 -10 -7 -10 -15z"/>
<path d="M11417 8886 c-4 -15 -6 -31 -2 -34 10 -10 16 6 13 35 l-3 28 -8 -29z"/>
<path d="M11326 8865 c4 -8 8 -15 10 -15 2 0 4 7 4 15 0 8 -4 15 -10 15 -5 0
-7 -7 -4 -15z"/>
<path d="M10112 8460 c0 -14 2 -19 5 -12 2 6 2 18 0 25 -3 6 -5 1 -5 -13z"/>
<path d="M11430 8432 c0 -5 7 -15 15 -22 8 -7 15 -8 15 -2 0 5 -7 15 -15 22
-8 7 -15 8 -15 2z"/>
<path d="M10110 8379 c0 -5 5 -7 10 -4 6 3 10 8 10 11 0 2 -4 4 -10 4 -5 0
-10 -5 -10 -11z"/>
<path d="M11430 8371 c0 -6 4 -13 10 -16 6 -3 7 1 4 9 -7 18 -14 21 -14 7z"/>
<path d="M11410 8263 c0 -10 5 -25 10 -33 7 -11 10 -7 10 18 0 17 -4 32 -10
32 -5 0 -10 -8 -10 -17z"/>
<path d="M9811 8256 c-10 -12 -8 -13 8 -9 12 3 21 9 21 14 0 14 -16 11 -29 -5z"/>
<path d="M11450 8256 c0 -8 4 -17 9 -20 5 -4 7 3 4 14 -6 23 -13 26 -13 6z"/>
<path d="M11420 8191 c0 -5 5 -13 10 -16 6 -3 10 -2 10 4 0 5 -4 13 -10 16 -5
3 -10 2 -10 -4z"/>
<path d="M11421 8064 c0 -11 3 -14 6 -6 3 7 2 16 -1 19 -3 4 -6 -2 -5 -13z"/>
<path d="M10015 8040 c-3 -5 -1 -10 4 -10 6 0 11 5 11 10 0 6 -2 10 -4 10 -3
0 -8 -4 -11 -10z"/>
<path d="M10554 8029 c-3 -6 -1 -16 5 -22 8 -8 11 -5 11 11 0 24 -5 28 -16 11z"/>
<path d="M9911 7995 c1 -19 18 -51 18 -35 0 8 -4 22 -9 30 -5 8 -9 11 -9 5z"/>
<path d="M10471 7984 c0 -11 3 -14 6 -6 3 7 2 16 -1 19 -3 4 -6 -2 -5 -13z"/>
<path d="M10698 7890 c-28 -31 -35 -50 -19 -50 5 0 18 -3 28 -6 15 -5 15 -4 3
5 -12 8 -11 14 13 39 15 15 27 31 27 35 0 16 -27 4 -52 -23z"/>
<path d="M10810 7810 c0 -5 5 -10 10 -10 6 0 10 5 10 10 0 6 -4 10 -10 10 -5
0 -10 -4 -10 -10z"/>
<path d="M10793 7736 c-31 -14 -29 -32 3 -40 30 -8 31 -7 34 14 6 41 1 45 -37
26z"/>
<path d="M10805 7670 c-3 -5 -1 -10 4 -10 6 0 11 5 11 10 0 6 -2 10 -4 10 -3
0 -8 -4 -11 -10z"/>
<path d="M10810 7634 c0 -5 4 -15 9 -23 5 -8 6 -24 1 -35 -4 -12 -4 -30 1 -41
6 -17 8 -17 8 -2 1 9 6 17 11 17 7 0 7 7 -1 22 -10 18 -9 20 5 15 13 -5 15 -3
7 12 -12 22 -41 47 -41 35z"/>
<path d="M8551 7394 c0 -11 3 -14 6 -6 3 7 2 16 -1 19 -3 4 -6 -2 -5 -13z"/>
<path d="M9545 7340 c-3 -5 1 -10 9 -10 9 0 16 5 16 10 0 6 -4 10 -9 10 -6 0
-13 -4 -16 -10z"/>
<path d="M8791 7284 c-1 -24 13 -38 47 -48 33 -11 27 10 -7 24 -17 6 -32 19
-34 28 -3 12 -5 11 -6 -4z"/>
<path d="M9080 7266 c0 -3 14 -12 31 -20 31 -16 79 -12 79 5 0 12 -17 12 -24
0 -7 -11 -46 -2 -46 10 0 5 -9 9 -20 9 -11 0 -20 -2 -20 -4z"/>
<path d="M8836 7211 c-4 -7 -5 -15 -2 -18 9 -9 19 4 14 18 -4 11 -6 11 -12 0z"/>
<path d="M9140 7136 c0 -9 5 -16 10 -16 6 0 10 4 10 9 0 6 -4 13 -10 16 -5 3
-10 -1 -10 -9z"/>
<path d="M9100 7114 c0 -8 5 -12 10 -9 6 3 10 10 10 16 0 5 -4 9 -10 9 -5 0
-10 -7 -10 -16z"/>
<path d="M10950 8383 c0 -4 5 -15 10 -23 8 -13 10 -13 10 2 0 9 -4 20 -10 23
-5 3 -10 3 -10 -2z"/>
<path d="M11180 8300 c0 -5 5 -10 10 -10 6 0 10 5 10 10 0 6 -4 10 -10 10 -5
0 -10 -4 -10 -10z"/>
</g>
</svg>
