<svg xmlns="http://www.w3.org/2000/svg" viewBox="0 0 1920 1080" preserveAspectRatio="xMidYMid slice">
  <defs>
    <!-- Sky Gradient -->
    <linearGradient id="skyGrad" x1="0%" y1="0%" x2="0%" y2="100%">
      <stop offset="0%" style="stop-color:#0a0002;stop-opacity:1" />
      <stop offset="30%" style="stop-color:#1a0005;stop-opacity:1" />
      <stop offset="60%" style="stop-color:#38020c;stop-opacity:1" />
      <stop offset="100%" style="stop-color:#5c0514;stop-opacity:1" />
    </linearGradient>

    <!-- Moon Glow -->
    <radialGradient id="moonGlow" cx="50%" cy="50%" r="50%">
      <stop offset="0%" style="stop-color:#ff003c;stop-opacity:0.3" />
      <stop offset="100%" style="stop-color:#ff003c;stop-opacity:0" />
    </radialGradient>

    <!-- Moon Surface -->
    <radialGradient id="moonSurface" cx="40%" cy="40%" r="60%">
      <stop offset="0%" style="stop-color:#ff4066;stop-opacity:1" />
      <stop offset="70%" style="stop-color:#c7042d;stop-opacity:1" />
      <stop offset="100%" style="stop-color:#8f071d;stop-opacity:1" />
    </radialGradient>

    <!-- Mist/Fog Filter -->
    <filter id="mistBlur">
      <feGaussianBlur stdDeviation="40" />
    </filter>

    <!-- Subtle Texture Filter -->
    <filter id="noise" x="0" y="0">
      <feTurbulence type="fractalNoise" baseFrequency="0.6" numOctaves="3" stitchTiles="stitch" />
      <feColorMatrix type="matrix" values="0 0 0 0 0 0 0 0 0 0 0 0 0 0 0 0 0 0 0.05 0" />
      <feComposite operator="in" in2="SourceGraphic" />
    </filter>
  </defs>

  <!-- Background Layer -->
  <rect width="1920" height="1080" fill="url(#skyGrad)" />
  <rect width="1920" height="1080" fill="url(#skyGrad)" filter="url(#noise)" opacity="0.3" />

  <!-- Atmospheric Glow -->
  <circle cx="960" cy="350" r="600" fill="url(#moonGlow)" />

  <!-- Distant Mountains -->
  <path d="M0,700 L300,550 L600,650 L900,500 L1200,600 L1500,450 L1920,650 L1920,1080 L0,1080 Z" fill="#1a0005" opacity="0.6" />
  
  <!-- Midground Hills -->
  <path d="M-100,1080 L-100,800 C200,700 500,850 800,750 C1100,650 1400,850 1700,700 C1850,625 1950,680 2020,750 L2020,1080 Z" fill="#0d0002" />

  <!-- Moon -->
  <circle cx="960" cy="350" r="120" fill="url(#moonSurface)" />
  <circle cx="960" cy="350" r="125" fill="none" stroke="#ff003c" stroke-width="2" opacity="0.2" />

  <!-- Castle Silhouette -->
  <g transform="translate(860, 520) scale(1.2)" fill="#050001">
    <rect x="20" y="50" width="100" height="80" />
    <rect x="10" y="30" width="30" height="100" />
    <rect x="100" y="30" width="30" height="100" />
    <polygon points="10,30 25,0 40,30" />
    <polygon points="100,30 115,0 130,30" />
    <rect x="55" y="10" width="30" height="120" />
    <polygon points="55,10 70,-20 85,10" />
    <!-- Battlements -->
    <path d="M20,50 h10 v-5 h10 v5 h10 v-5 h10 v5 h10 v-5 h10 v5 h10 v-5 h10 v5" />
  </g>

  <!-- Trees (Pine) -->
  <g fill="#050001">
    <!-- Left side cluster -->
    <path d="M100,900 L150,750 L200,900 Z" />
    <path d="M110,850 L150,720 L190,850 Z" />
    <path d="M120,800 L150,690 L180,800 Z" />
    
    <path d="M250,950 L300,800 L350,950 Z" />
    <path d="M260,900 L300,770 L340,900 Z" />
    
    <path d="M50,1000 L100,850 L150,1000 Z" />
    
    <!-- Right side cluster -->
    <path d="M1600,920 L1650,770 L1700,920 Z" />
    <path d="M1610,870 L1650,740 L1690,870 Z" />
    
    <path d="M1750,980 L1800,830 L1850,980 Z" />
    <path d="M1760,930 L1800,800 L1840,930 Z" />
    
    <path d="M1500,1050 L1550,900 L1600,1050 Z" />
  </g>

  <!-- Foreground Ground -->
  <path d="M0,1080 C300,1000 600,1050 960,1020 C1320,1050 1620,1000 1920,1080 L1920,1100 L0,1100 Z" fill="#000000" />

  <!-- Fog/Mist -->
  <g filter="url(#mistBlur)" opacity="0.4">
    <ellipse cx="400" cy="900" rx="600" ry="100" fill="#38020c" />
    <ellipse cx="1500" cy="850" rx="700" ry="120" fill="#1a0005" />
    <ellipse cx="960" cy="950" rx="1000" ry="150" fill="#38020c" />
  </g>

  <!-- Vignette -->
  <radialGradient id="vignette" cx="50%" cy="50%" r="70%">
    <stop offset="0%" style="stop-color:#000000;stop-opacity:0" />
    <stop offset="100%" style="stop-color:#000000;stop-opacity:0.6" />
  </radialGradient>
  <rect width="1920" height="1080" fill="url(#vignette)" pointer-events="none" />
</svg>
